<?xml version="1.0" encoding="UTF-8"?>
<svg version="1.1" xmlns="http://www.w3.org/2000/svg" width="500" height="500">
<path d="M0 0 C165 0 330 0 500 0 C500 165 500 330 500 500 C335 500 170 500 0 500 C0 335 0 170 0 0 Z " fill="#FEFEFF" transform="translate(0,0)"/>
<path d="M0 0 C5.92173026 4.41620562 8.74301468 10.88529405 11.03125 17.75 C12.01207968 35.08559438 8.71439276 52.33044553 -2.9765625 65.67578125 C-11.77503976 74.83654875 -22.37386055 81.39623603 -35.3359375 82.0859375 C-47.250566 82.32475207 -56.27099566 81.17348595 -65.28125 72.671875 C-67.9400357 69.64381351 -69.54479909 66.49723924 -70.96875 62.75 C-71.38125 61.6775 -71.79375 60.605 -72.21875 59.5 C-75.36885783 43.74946087 -70.63681621 27.94748606 -61.96875 14.75 C-56.82350282 7.60987944 -50.70062852 2.88366358 -42.96875 -1.25 C-41.75832031 -1.90355469 -41.75832031 -1.90355469 -40.5234375 -2.5703125 C-28.09179805 -8.14311639 -11.40181048 -7.23924475 0 0 Z " fill="#0471FF" transform="translate(457.96875,213.25)"/>
<path d="M0 0 C6.93 0 13.86 0 21 0 C19.6288135 7.77219263 18.07522698 15.48119581 16.375 23.1875 C15.59125 26.755625 14.8075 30.32375 14 34 C24.89 34 35.78 34 47 34 C48.97192231 23.50666554 48.97192231 23.50666554 50.9140625 13.0078125 C51.14867188 11.72648438 51.38328125 10.44515625 51.625 9.125 C51.80675781 8.11373047 51.80675781 8.11373047 51.9921875 7.08203125 C52.88777282 2.22445437 52.88777282 2.22445437 54 0 C60.93 0 67.86 0 75 0 C71.2250868 19.00039646 67.3590837 37.98152849 63.47900391 56.96069336 C63.26516556 58.00692871 63.05132721 59.05316406 62.83100891 60.13110352 C62.42870582 62.09916477 62.02620417 64.06718545 61.62345886 66.03515625 C61.4393898 66.93548584 61.25532074 67.83581543 61.06567383 68.76342773 C60.79988022 70.05843704 60.79988022 70.05843704 60.52871704 71.37960815 C60.16052335 73.20442497 59.80289604 75.03139224 59.45346069 76.8598938 C59.27892365 77.76859222 59.1043866 78.67729065 58.92456055 79.61352539 C58.77045212 80.43244766 58.61634369 81.25136993 58.45756531 82.09510803 C58 84 58 84 57 85 C55.5112814 85.08669432 54.018555 85.10703494 52.52734375 85.09765625 C51.62822266 85.09443359 50.72910156 85.09121094 49.80273438 85.08789062 C48.38444336 85.07532227 48.38444336 85.07532227 46.9375 85.0625 C45.98810547 85.05798828 45.03871094 85.05347656 44.06054688 85.04882812 C41.70696935 85.0370011 39.35351523 85.02052025 37 85 C36.873536 80.23915743 37.24735626 76.0479696 38.3125 71.41015625 C38.55613281 70.3312915 38.79976562 69.25242676 39.05078125 68.14086914 C39.52064453 66.12207642 39.52064453 66.12207642 40 64.0625 C41.485 57.5965625 41.485 57.5965625 43 51 C32.11 51 21.22 51 10 51 C9.34 55.62 8.68 60.24 8 65 C7.34860338 68.45363116 6.67924464 71.88016832 5.9375 75.3125 C5.67743164 76.56450195 5.67743164 76.56450195 5.41210938 77.84179688 C4.1297797 83.8702203 4.1297797 83.8702203 3 85 C1.5112814 85.08669432 0.018555 85.10703494 -1.47265625 85.09765625 C-2.37177734 85.09443359 -3.27089844 85.09121094 -4.19726562 85.08789062 C-5.61555664 85.07532227 -5.61555664 85.07532227 -7.0625 85.0625 C-8.01189453 85.05798828 -8.96128906 85.05347656 -9.93945312 85.04882812 C-12.29303065 85.0370011 -14.64648477 85.02052025 -17 85 C-16.49689576 77.01062556 -15.14792569 69.46975141 -13.3125 61.6875 C-11.00020497 51.61219865 -8.86602801 41.5179367 -6.875 31.375 C-4.80354562 20.85211944 -2.55484679 10.41591385 0 0 Z " fill="#0471FF" transform="translate(40,209)"/>
<path d="M0 0 C1.11145386 0.00737183 1.11145386 0.00737183 2.24536133 0.01489258 C9.45290758 0.16841213 16.04908505 1.15068932 22 5.5 C27.15075204 11.0186629 29.11332893 15.87561549 28.86328125 23.4296875 C28.625 25.3125 28.625 25.3125 27.625 27.3125 C21.025 27.3125 14.425 27.3125 7.625 27.3125 C6.965 25.0025 6.305 22.6925 5.625 20.3125 C1.67262246 17.2270956 -3.60684807 17.79472661 -8.375 18.3125 C-11.39786884 19.69798155 -13.04371425 20.98121425 -15.375 23.3125 C-15.54181109 26.39597826 -15.54181109 26.39597826 -15.375 29.3125 C-10.95861068 31.72901491 -6.88136404 33.55570499 -2 34.8125 C7.8497089 37.3908864 14.56250217 39.74713609 20.625 48.3125 C23.05277201 53.16804402 22.21627596 60.00523837 20.90625 65.1171875 C17.37029171 74.49888327 11.6557962 80.09812844 2.625 84.3125 C-4.18302751 86.86891584 -10.49665392 87.86622352 -17.75 87.8125 C-19.12200562 87.80283203 -19.12200562 87.80283203 -20.52172852 87.79296875 C-28.79792482 87.57006065 -36.304641 86.36708242 -42.390625 80.3046875 C-48.20446256 72.94230443 -47.45919896 66.49018649 -47.375 57.3125 C-40.775 57.3125 -34.175 57.3125 -27.375 57.3125 C-26.715 59.9525 -26.055 62.5925 -25.375 65.3125 C-22.09030165 68.51708375 -19.42445066 69.55857719 -14.9375 69.75 C-9.62789097 69.49033952 -5.34923461 68.22304962 -1.4375 64.4375 C-0.09418808 61.75087616 0.23167797 60.27005509 -0.375 57.3125 C-5.48296397 53.32322236 -12.19582999 52.34383998 -18.36328125 50.82617188 C-25.85638852 48.83699448 -32.40878077 45.94611856 -37.40625 39.82421875 C-39.64980688 34.00725473 -39.2853637 27.45259509 -37.56640625 21.5234375 C-33.76514896 13.02650943 -26.87117034 7.12016543 -18.58984375 3.1015625 C-12.34080578 0.87527384 -6.59123817 -0.05203014 0 0 Z " fill="#0671FF" transform="translate(276.375,207.6875)"/>
<path d="M0 0 C3.83037845 3.44875403 7.18188743 6.76605089 8 12 C8.09021304 13.72731441 8.13010978 15.45783895 8.125 17.1875 C8.12886719 18.50814453 8.12886719 18.50814453 8.1328125 19.85546875 C8 22 8 22 7 23 C5.58429877 23.08651611 4.164405 23.10704904 2.74609375 23.09765625 C1.89208984 23.09443359 1.03808594 23.09121094 0.15820312 23.08789062 C-1.18854492 23.07532227 -1.18854492 23.07532227 -2.5625 23.0625 C-3.46419922 23.05798828 -4.36589844 23.05347656 -5.29492188 23.04882812 C-7.53001314 23.03700225 -9.76497437 23.0205222 -12 23 C-12.2475 21.88625 -12.495 20.7725 -12.75 19.625 C-13.62252259 16.03697668 -13.62252259 16.03697668 -15.7890625 14.5859375 C-21.57643133 13.05218251 -27.17066671 13.17995404 -32.625 15.625 C-35.4321336 18.4321336 -35.82227527 20.09005601 -36 24 C-30.96133599 28.85088771 -25.13315642 29.90474429 -18.56835938 31.62304688 C-11.16052584 33.67487699 -4.7430529 36.35383979 0 42.625 C2.76933076 47.67217619 3.03660575 52.39188829 2 58 C-1.09772562 67.01156545 -5.87401618 73.59905977 -14.23046875 78.23828125 C-25.60050893 83.6199698 -38.89357618 84.94979391 -51.2109375 82.3125 C-57.94629834 79.82559754 -63.20251727 75.957149 -66.9375 69.8125 C-68.36813397 64.67904869 -69.47742548 57.95485097 -67 53 C-60.4 53 -53.8 53 -47 53 C-46.34 55.97 -45.68 58.94 -45 62 C-40.40325923 64.97436167 -36.39573154 65.56797174 -31 65 C-27.09307565 64.00340932 -23.94223803 62.85658003 -20.9375 60.125 C-19.827612 57.99635603 -19.827612 57.99635603 -20 55.4375 C-21.38351457 52.06518322 -22.71571917 51.62340878 -26 50 C-30.30714348 48.65173782 -34.69253705 47.5824733 -39.07617188 46.51367188 C-47.14368924 44.37968341 -53.19816658 40.96394332 -58 34 C-60.15888751 28.50464996 -59.55799618 22.74339017 -57.3125 17.4375 C-56.56963742 15.94409006 -55.79945193 14.46389708 -55 13 C-54.67257812 12.37996094 -54.34515625 11.75992188 -54.0078125 11.12109375 C-49.63366687 3.98517005 -41.72685816 -0.38105426 -33.9375 -2.9375 C-23.45701744 -5.34680634 -9.22582108 -6.31425017 0 0 Z " fill="#0571FF" transform="translate(373,212)"/>
<path d="M0 0 C6.6 0 13.2 0 20 0 C19.33793973 8.42108364 17.82107592 16.54309572 16.125 24.8125 C15.74021484 26.72772461 15.74021484 26.72772461 15.34765625 28.68164062 C13.88726265 35.89187535 12.31310218 43.05558027 10.5402832 50.19580078 C9.75524339 54.27034545 9.71492486 58.03340141 11 62 C13.31429038 64.98618113 15.29529393 66.7781981 19.1015625 67.2734375 C24.74288892 67.50048779 28.43261149 66.79683912 33.2109375 63.77734375 C38.546816 58.47641642 39.9269055 52.18796532 41.3125 45.0625 C41.72823175 43.04147413 42.14496026 41.02065312 42.5625 39 C42.78679687 37.89785156 43.01109375 36.79570312 43.2421875 35.66015625 C44.54953816 29.34578732 45.94441993 23.05057973 47.33065796 16.75314331 C47.94905047 13.94168788 48.56445126 11.1295823 49.17951965 8.31739807 C49.78595145 5.54484562 50.3930376 2.77243634 51 0 C57.93 0 64.86 0 72 0 C69.73500991 12.1403469 67.39347393 24.26520518 64.9524231 36.37139893 C64.65390178 37.85838745 64.35832563 39.34597067 64.06588745 40.83416748 C61.21619604 55.3086549 58.44471295 69.36331121 45.625 78.3125 C33.12584461 85.99116201 20.58463538 87.58044139 6.13671875 85.609375 C-1.22465615 83.56963346 -6.93355452 78.13097799 -11.0625 71.875 C-14.0604636 59.48341714 -10.96912315 47.25998941 -8.25 35.125 C-7.8971769 33.49376173 -7.54560924 31.8622514 -7.1953125 30.23046875 C-5.00214977 20.09909333 -2.56016181 10.04459883 0 0 Z " fill="#0471FF" transform="translate(127,209)"/>
<path d="M0 0 C6.6 0 13.2 0 20 0 C19.35068723 8.01825763 17.98955511 15.74852608 16.375 23.625 C15.98284302 25.56137329 15.98284302 25.56137329 15.58276367 27.53686523 C11.67263206 46.7513838 7.43639602 65.90071201 3 85 C-3.6 85 -10.2 85 -17 85 C-17 77.12475054 -17 77.12475054 -16.28491211 73.76586914 C-16.12707748 73.00770401 -15.96924286 72.24953888 -15.80662537 71.46839905 C-15.63196243 70.66542892 -15.4572995 69.8624588 -15.27734375 69.03515625 C-15.00586266 67.74689186 -15.00586266 67.74689186 -14.72889709 66.43260193 C-14.13869399 63.64104484 -13.5383389 60.85178545 -12.9375 58.0625 C-12.52749447 56.13552305 -12.11799322 54.20843874 -11.70898438 52.28125 C-10.48315299 46.51855825 -9.24277418 40.75905759 -8 35 C-7.634224 33.30062997 -7.26849904 31.60124895 -6.90283203 29.90185547 C-5.94033368 25.43345399 -4.97233669 20.96627048 -4 16.5 C-3.8527951 15.82301056 -3.70559021 15.14602112 -3.55392456 14.44851685 C-3.14216179 12.558981 -2.72741221 10.67009677 -2.3125 8.78125 C-2.08175781 7.73001953 -1.85101563 6.67878906 -1.61328125 5.59570312 C-1 3 -1 3 0 0 Z " fill="#0571FF" transform="translate(211,209)"/>
<path d="M0 0 C4.19893871 2.8992672 6.64183092 5.80301944 7.625 10.8125 C8.71434677 21.20319228 5.87976117 32.41922151 -0.375 40.8125 C-5.80394321 46.56079281 -10.37644872 49.81827089 -18.375 50.125 C-22.53767733 50.02618273 -25.11828998 49.59028207 -28.375 46.8125 C-34.18263999 40.19824334 -33.93601935 34.2687619 -33.55419922 25.83642578 C-32.77982762 17.09045775 -28.17292967 8.90605276 -21.5390625 3.24609375 C-14.86368129 -1.69706829 -7.85946687 -2.76536797 0 0 Z " fill="#FBFCFF" transform="translate(440.375,227.1875)"/>
<path d="M0 0 C0.66 0.33 1.32 0.66 2 1 C-1.96 4.96 -5.92 8.92 -10 13 C-10.66 12.67 -11.32 12.34 -12 12 C-10.75479583 10.55834372 -9.50362077 9.12184348 -8.25 7.6875 C-7.55390625 6.88699219 -6.8578125 6.08648437 -6.140625 5.26171875 C-4.20854665 3.22034399 -2.30056874 1.60107149 0 0 Z " fill="#2583FF" transform="translate(408,216)"/>
<path d="M0 0 C0.66 0.33 1.32 0.66 2 1 C-0.97 3.97 -3.94 6.94 -7 10 C-7 7 -7 7 -4.625 4.4375 C-3.75875 3.633125 -2.8925 2.82875 -2 2 C-1.34 1.34 -0.68 0.68 0 0 Z " fill="#197DFF" transform="translate(327,215)"/>
</svg>
